<svg width="386" height="123" viewBox="0 0 386 123" fill="none" xmlns="http://www.w3.org/2000/svg">
<g clip-path="url(#clip0_21_4)">
<mask id="mask0_21_4" style="mask-type:luminance" maskUnits="userSpaceOnUse" x="14" y="14" width="358" height="30">
<path d="M372 14H14V44H372V14Z" fill="white"/>
</mask>
<g mask="url(#mask0_21_4)">
<path d="M29 44C37.2843 44 44 37.2843 44 29C44 20.7157 37.2843 14 29 14C20.7157 14 14 20.7157 14 29C14 37.2843 20.7157 44 29 44Z" fill="#3B82F6"/>
<path d="M29.0537 34.9998L28.9468 23.0002Z" fill="#3B82F6"/>
<path d="M29.0537 34.9998L28.9468 23.0002" stroke="white" stroke-width="2" stroke-linecap="round" stroke-linejoin="round"/>
<path d="M23.0005 29.0535L28.9468 23.0002L35 28.9465" fill="#3B82F6"/>
<path d="M23.0005 29.0535L28.9468 23.0002L35 28.9465" stroke="white" stroke-width="2" stroke-linecap="round" stroke-linejoin="round"/>
</g>
<path fill-rule="evenodd" clip-rule="evenodd" d="M3 123C3 123 18.7016 113.558 39.5 107.5C60.2984 101.443 76 99.0002 76 99.0002C76 99.0002 87.5213 87.5 99 87.5C113 92.404 108.827 94.5 117 94.5C128 89.4043 128.937 81 136.5 81C144.063 81 148.933 66.4792 160.5 69C172.067 71.5208 181.564 60.0002 188.5 60.0002C195.436 60.0002 207.226 69 215 69C222.774 69 242.919 49.3045 248.5 47.5002C254.08 45.6958 258.8 60.0002 266.19 60.0002C272.075 60.0002 291.922 31.4615 294.5 31.5002C302.584 31.6216 303.269 59.5 308.5 59.5C315.4 59.5 325.824 16.7092 338 15.0003C350.176 13.2914 347.579 11.5192 363 10C367.236 9.5827 379.033 1.1009 382.521 6C385.53 10.2266 381.054 97.4327 382.521 104.647C383.479 109.364 382.521 123 382.521 123" fill="url(#paint0_linear_21_4)"/>
<path d="M3 121.077C3 121.077 27.2846 112.413 48 106.5C68.7154 100.587 76.5 98 76.5 98C76.5 98 86.0671 87.756 97.5 87.756C108.932 87.756 108.859 93 117 93C125.14 93 128.467 81 136 81C143.533 81 149.479 67.0392 161 69.5C172.522 71.9607 182.092 60.5 189 60.5C195.908 60.5 207.757 69.5 215.5 69.5C223.243 69.5 243.442 49.7614 249 48C254.558 46.2386 257.923 60.5 265.284 60.5C271.145 60.5 291.432 31.9622 294 32C302.051 32.1186 303.289 60.5 308.5 60.5C315.372 60.5 324.873 17.6682 337 16C349.128 14.3317 345.64 11.983 361 10.5C372.5 6 383 5.5 383 5.5" stroke="#3B82F6" stroke-width="3"/>
</g>
<defs>
<linearGradient id="paint0_linear_21_4" x1="3" y1="60" x2="3" y2="123" gradientUnits="userSpaceOnUse">
<stop stop-color="#3B82F6" stop-opacity="0.65"/>
<stop offset="1" stop-color="#646CFF" stop-opacity="0.03"/>
</linearGradient>
<clipPath id="clip0_21_4">
<rect width="386" height="123" fill="white"/>
</clipPath>
</defs>
</svg>
