<svg width="354" height="181" viewBox="0 0 354 181" fill="none" xmlns="http://www.w3.org/2000/svg">
<path d="M57.075 65.225V90.725H91.425V109.475H57.075V135.5H101.925V155H31.575V45.725H101.925V65.225H57.075Z" fill="#646CFF"/>
<path d="M140.719 105.42C140.719 107.527 140.352 109.473 139.619 111.26C138.899 113.033 137.879 114.573 136.559 115.88C135.239 117.173 133.645 118.187 131.779 118.92C129.925 119.64 127.865 120 125.599 120H114.279V90.86H125.599C127.865 90.86 129.925 91.2267 131.779 91.96C133.645 92.6933 135.239 93.7067 136.559 95C137.879 96.2933 138.899 97.8333 139.619 99.62C140.352 101.393 140.719 103.327 140.719 105.42ZM133.799 105.42C133.799 103.98 133.612 102.68 133.239 101.52C132.865 100.36 132.325 99.38 131.619 98.58C130.925 97.7667 130.072 97.1467 129.059 96.72C128.045 96.28 126.892 96.06 125.599 96.06H121.079V114.8H125.599C126.892 114.8 128.045 114.587 129.059 114.16C130.072 113.72 130.925 113.1 131.619 112.3C132.325 111.487 132.865 110.5 133.239 109.34C133.612 108.18 133.799 106.873 133.799 105.42ZM157.508 120H150.708V90.86H157.508V120ZM190.07 96.22H181.87V120H175.11V96.22H166.91V90.86H190.07V96.22ZM224.945 90.86V120H218.145V107.68H206.305V120H199.505V90.86H206.305V103.04H218.145V90.86H224.945Z" fill="#646CFF"/>
<path d="M146.158 127.86V157H140.198V140.24C140.198 139.853 140.205 139.433 140.218 138.98C140.245 138.527 140.285 138.067 140.338 137.6L132.598 152.58C132.358 153.047 132.031 153.4 131.618 153.64C131.218 153.88 130.758 154 130.238 154H129.318C128.798 154 128.331 153.88 127.918 153.64C127.518 153.4 127.198 153.047 126.958 152.58L119.218 137.56C119.258 138.04 119.291 138.513 119.318 138.98C119.345 139.433 119.358 139.853 119.358 140.24V157H113.398V127.86H118.558C118.851 127.86 119.105 127.867 119.318 127.88C119.545 127.893 119.745 127.933 119.918 128C120.091 128.067 120.245 128.173 120.378 128.32C120.525 128.453 120.665 128.647 120.798 128.9L128.298 143.68C128.565 144.187 128.818 144.713 129.058 145.26C129.311 145.807 129.551 146.367 129.778 146.94C130.005 146.353 130.238 145.78 130.478 145.22C130.731 144.66 130.998 144.127 131.278 143.62L138.758 128.9C138.891 128.647 139.025 128.453 139.158 128.32C139.305 128.173 139.465 128.067 139.638 128C139.811 127.933 140.005 127.893 140.218 127.88C140.445 127.867 140.705 127.86 140.998 127.86H146.158ZM164.597 133.06V139.86H173.757V144.86H164.597V151.8H176.557V157H157.797V127.86H176.557V133.06H164.597ZM213.166 142.42C213.166 144.527 212.8 146.473 212.066 148.26C211.346 150.033 210.326 151.573 209.006 152.88C207.686 154.173 206.093 155.187 204.226 155.92C202.373 156.64 200.313 157 198.046 157H186.726V127.86H198.046C200.313 127.86 202.373 128.227 204.226 128.96C206.093 129.693 207.686 130.707 209.006 132C210.326 133.293 211.346 134.833 212.066 136.62C212.8 138.393 213.166 140.327 213.166 142.42ZM206.246 142.42C206.246 140.98 206.06 139.68 205.686 138.52C205.313 137.36 204.773 136.38 204.066 135.58C203.373 134.767 202.52 134.147 201.506 133.72C200.493 133.28 199.34 133.06 198.046 133.06H193.526V151.8H198.046C199.34 151.8 200.493 151.587 201.506 151.16C202.52 150.72 203.373 150.1 204.066 149.3C204.773 148.487 205.313 147.5 205.686 146.34C206.06 145.18 206.246 143.873 206.246 142.42ZM229.956 157H223.156V127.86H229.956V157ZM261.218 149.46C261.378 149.46 261.538 149.493 261.698 149.56C261.858 149.613 262.011 149.713 262.158 149.86L264.838 152.68C263.664 154.213 262.191 155.373 260.418 156.16C258.658 156.933 256.571 157.32 254.158 157.32C251.944 157.32 249.958 156.947 248.198 156.2C246.451 155.44 244.964 154.4 243.738 153.08C242.524 151.747 241.591 150.173 240.938 148.36C240.284 146.533 239.958 144.553 239.958 142.42C239.958 140.247 240.311 138.253 241.018 136.44C241.724 134.613 242.718 133.04 243.998 131.72C245.278 130.4 246.811 129.373 248.598 128.64C250.384 127.907 252.351 127.54 254.498 127.54C255.591 127.54 256.618 127.64 257.578 127.84C258.551 128.027 259.458 128.293 260.298 128.64C261.138 128.973 261.911 129.38 262.618 129.86C263.324 130.34 263.951 130.86 264.498 131.42L262.218 134.48C262.071 134.667 261.898 134.84 261.698 135C261.498 135.147 261.218 135.22 260.858 135.22C260.618 135.22 260.391 135.167 260.178 135.06C259.964 134.953 259.738 134.827 259.498 134.68C259.258 134.52 258.991 134.353 258.698 134.18C258.418 133.993 258.078 133.827 257.678 133.68C257.291 133.52 256.831 133.387 256.298 133.28C255.778 133.173 255.164 133.12 254.458 133.12C253.338 133.12 252.311 133.327 251.378 133.74C250.458 134.153 249.658 134.76 248.978 135.56C248.311 136.347 247.791 137.32 247.418 138.48C247.058 139.627 246.878 140.94 246.878 142.42C246.878 143.913 247.078 145.24 247.478 146.4C247.891 147.56 248.444 148.54 249.138 149.34C249.844 150.127 250.664 150.727 251.598 151.14C252.531 151.553 253.531 151.76 254.598 151.76C255.211 151.76 255.771 151.733 256.278 151.68C256.784 151.613 257.258 151.513 257.698 151.38C258.138 151.233 258.551 151.047 258.938 150.82C259.324 150.58 259.718 150.28 260.118 149.92C260.278 149.787 260.451 149.68 260.638 149.6C260.824 149.507 261.018 149.46 261.218 149.46ZM289.189 145.86L286.489 137.88C286.289 137.373 286.075 136.78 285.849 136.1C285.622 135.407 285.395 134.66 285.169 133.86C284.969 134.673 284.755 135.427 284.529 136.12C284.302 136.813 284.089 137.413 283.889 137.92L281.209 145.86H289.189ZM299.929 157H294.689C294.102 157 293.629 156.867 293.269 156.6C292.909 156.32 292.635 155.967 292.449 155.54L290.729 150.46H279.649L277.929 155.54C277.782 155.913 277.515 156.253 277.129 156.56C276.755 156.853 276.289 157 275.729 157H270.449L281.729 127.86H288.649L299.929 157ZM325.786 151.6V157H308.226V127.86H314.986V151.6H325.786Z" fill="#656674"/>
</svg>
