<svg width="119" height="43" viewBox="0 0 119 43" fill="none" xmlns="http://www.w3.org/2000/svg">
<g clip-path="url(#clip0_1100_3465)">
<path d="M5.66898 23.3666V4.82515L21.6667 1.31968L37.6644 4.82515V23.3666C37.6644 26.3172 36.5661 29.1684 34.5319 31.3282C30.7125 35.3722 26.425 38.6627 21.6667 41.2633C16.9094 38.6632 12.6225 35.3735 8.80379 31.3306C6.79689 29.1657 5.66898 26.3116 5.66898 23.3666Z" fill="url(#paint0_radial_1100_3465)" stroke="url(#paint1_linear_1100_3465)" stroke-width="1.47126"/>
<g filter="url(#filter0_d_1100_3465)">
<path d="M21.551 31.5545C21.5617 32.3005 21.5723 32.8439 21.583 33.1103C21.5937 33.1423 21.5937 33.1849 21.583 33.2169C21.583 33.2595 21.583 33.2915 21.583 33.2915C21.583 33.4407 21.6043 33.5898 21.6469 33.7284C21.6896 33.5898 21.7109 33.4407 21.7109 33.2915C21.7109 33.2382 21.7322 32.4603 21.7642 31.2135C21.7535 31.2242 21.7428 31.2348 21.7428 31.2455C21.6682 31.3414 21.6043 31.448 21.551 31.5545ZM19.3345 15.9965C19.505 15.8154 19.6649 15.6022 19.7821 15.3785C19.6969 15.5703 19.3665 16.2949 19.6862 16.3588C20.0379 16.4228 20.4321 16.3162 21.1461 15.4104C21.1248 14.2489 21.1035 13.2366 21.0928 12.4693H20.7092C20.6879 12.4693 20.6772 12.4693 20.6559 12.4693C20.4428 12.4693 20.0911 12.448 19.8567 12.0964C19.601 11.7127 19.5903 11.3185 19.5796 11.0308C19.569 10.6152 19.4624 9.85857 18.9403 9.43233C18.578 9.14461 17.5976 8.92083 16.6918 9.28314C16.3934 9.40036 15.7967 9.70939 15.2106 9.9971C14.6778 10.2635 13.9958 10.5938 13.7827 10.5938C14.1343 10.434 14.6032 10.1996 15.1147 9.91185C15.7008 9.59217 16.3189 9.25117 16.6279 9.1233C17.2459 8.8782 18.4288 8.80361 19.0362 9.2938C19.6116 9.76267 19.7288 10.5725 19.7395 11.0094C19.7501 11.2972 19.7608 11.6488 19.9846 12.0005C20.187 12.2988 20.5067 12.2988 20.6985 12.2988H20.7412H21.0822C21.0822 12.2029 21.0822 12.1177 21.0822 12.0218C20.7412 12.0431 20.251 12.0644 20.0379 11.6062C19.7821 11.0521 20.0592 9.63479 19.2067 9.03805C18.3542 8.4413 16.9902 8.59049 15.7754 9.2938C14.5712 9.98645 12.9728 10.8922 11.0014 11.6808C9.03004 12.4693 7.80458 12.789 7.57014 12.821C7.34636 12.8636 7.7513 13.0128 8.59313 13.0341C9.43497 13.0554 10.1383 12.9915 10.1383 12.9915L16.3189 10.1783C16.3189 10.1783 10.9908 12.8316 10.5432 13.1194C10.0957 13.4071 9.73334 13.503 9.76531 13.7694C9.79728 14.0358 10.1383 14.0038 11.076 13.9825C12.0138 13.9612 12.2162 13.8759 12.5359 13.78C12.8556 13.6841 16.3189 12.0857 16.3189 12.0857C16.3189 12.0857 12.6105 13.9292 12.0777 14.3555C11.5449 14.7817 12.1203 14.9202 12.4826 14.9309C12.8556 14.9416 13.8466 14.8883 14.4007 14.6112C14.9549 14.3342 16.6812 13.2259 16.6812 13.2259C16.6812 13.2259 14.9762 14.4514 14.6458 14.7284C14.3794 14.9522 14.2409 15.144 14.3048 15.3785C14.4007 15.6768 14.9122 15.6449 15.5942 15.3998C15.5942 15.3998 16.2975 15.1547 16.5639 14.9202C16.8303 14.6752 17.5763 14.0145 17.5763 14.0145C17.5763 14.0145 16.6918 14.9309 16.468 15.3252C16.2549 15.7195 16.2123 15.8154 16.3189 16.0391C16.468 16.3588 17.5976 16.0285 17.9173 15.6875C18.1517 15.4211 18.3755 15.144 18.578 14.8457C18.578 14.8457 18.237 15.3998 18.1624 15.7195C18.0878 16.0391 18.0025 16.2949 18.3116 16.3269C18.6526 16.3801 18.9722 16.3908 19.3345 15.9965ZM21.4445 23.2534C21.4764 23.2321 21.5084 23.2107 21.5404 23.1894C21.6043 23.1468 21.6576 23.1148 21.7002 23.0722C21.7855 23.0189 21.8707 22.955 21.956 22.9017C21.9666 22.2943 21.9879 21.6763 21.9986 21.0689C21.8281 20.9943 21.6469 20.9197 21.4551 20.8451C21.4445 20.8451 21.4338 20.8344 21.4232 20.8344C21.4018 20.8238 21.3912 20.8238 21.3699 20.8131C21.242 20.7705 21.1248 20.7172 20.9863 20.6746C20.8264 20.6106 20.6666 20.5574 20.5067 20.4934C19.4411 21.0582 19.228 21.3246 19.228 21.8468C19.228 22.582 19.8567 22.9124 20.9436 23.605C21.1141 23.4771 21.2846 23.3599 21.4445 23.2534ZM20.1338 21.9427C20.1338 21.9427 20.0592 21.4738 21.2633 20.9303C21.2953 20.9197 21.3273 20.8984 21.3592 20.8877C21.3699 21.623 21.3805 22.3583 21.4018 23.0935C20.8051 22.6886 20.1338 22.305 20.1338 21.9427ZM21.956 30.9897C21.9027 31.0537 21.8494 31.1176 21.7961 31.1709C22.1052 31.5865 22.0838 31.9914 21.9133 32.5136C22.0732 32.3324 22.3929 31.8742 22.1265 31.2775C22.0732 31.1816 22.0199 31.0856 21.956 30.9897ZM21.4658 26.6207C21.583 26.7379 21.7215 26.8765 21.8601 27.015C21.9453 27.1002 22.0306 27.1855 22.1265 27.2814C22.1371 27.2921 22.1584 27.3027 22.1797 27.324C22.9044 26.6953 23.565 26.0986 23.565 25.3526C23.565 24.7665 23.0003 24.2337 22.4355 23.8075C22.3822 23.8395 22.3289 23.8714 22.2757 23.914C22.1478 23.9993 22.0306 24.0739 21.924 24.1485C21.924 24.1485 21.9133 24.1485 21.9133 24.1591C21.892 24.1805 21.8601 24.1911 21.8387 24.2124C21.6896 24.319 21.551 24.4149 21.4232 24.5108C21.4445 25.2248 21.4551 25.9387 21.4658 26.6207ZM21.924 24.2657C22.6273 24.7772 22.9044 25.1075 22.9044 25.4698C22.9044 25.8428 22.5101 26.2797 21.8707 26.9191C21.8814 26.0666 21.9027 25.1821 21.924 24.2657ZM25.8135 14.0251C25.8135 14.0251 26.5594 14.6858 26.8258 14.9309C27.0922 15.176 27.7955 15.4104 27.7955 15.4104C28.4775 15.6555 28.989 15.6875 29.0849 15.3891C29.1595 15.1547 29.0103 14.9522 28.7439 14.7391C28.4136 14.462 26.7086 13.2366 26.7086 13.2366C26.7086 13.2366 28.4349 14.3448 28.989 14.6219C29.5432 14.8989 30.5342 14.9522 30.9071 14.9416C31.2801 14.9309 31.8449 14.7924 31.3121 14.3661C30.7793 13.9399 27.0709 12.0964 27.0709 12.0964C27.0709 12.0964 30.5235 13.7054 30.8539 13.7907C31.1735 13.8866 31.376 13.9612 32.3138 13.9932C33.2515 14.0145 33.5818 14.0464 33.6245 13.78C33.6671 13.5243 33.2941 13.4284 32.8466 13.13C32.399 12.8423 27.0709 10.1889 27.0709 10.1889L33.2515 13.0021C33.2515 13.0021 33.9548 13.0661 34.7966 13.0448C35.6385 13.0235 36.0434 12.8743 35.8196 12.8316C35.5959 12.789 34.3597 12.48 32.3884 11.6914C30.417 10.9029 28.8185 10.0078 27.6144 9.30445C26.4102 8.6118 25.0356 8.45196 24.1831 9.0487C23.3306 9.64545 23.6077 11.0521 23.3519 11.6168C23.1388 12.0751 22.6486 12.0537 22.3076 12.0324C22.3076 12.1177 22.3076 12.2136 22.297 12.3095H22.6486H22.6912C22.8831 12.3095 23.2027 12.3095 23.4052 12.0111C23.629 11.6701 23.6396 11.3078 23.6503 11.0201C23.661 10.5832 23.7782 9.77332 24.3536 9.30445C24.961 8.81427 26.1438 8.88886 26.7619 9.13395C27.0709 9.25117 27.689 9.59217 28.2751 9.92251C28.7866 10.2102 29.2554 10.4447 29.6071 10.6045C29.3833 10.6045 28.712 10.2742 28.1792 10.0078C27.6037 9.70939 27.007 9.41101 26.698 9.2938C25.7922 8.93149 24.8118 9.15527 24.4495 9.44298C23.9167 9.86923 23.8208 10.6258 23.8101 11.0414C23.7995 11.3291 23.7888 11.7341 23.5331 12.107C23.3093 12.4587 22.9576 12.48 22.7339 12.48C22.7126 12.48 22.7019 12.48 22.6806 12.48H22.297C22.2757 13.2472 22.2543 14.2489 22.233 15.3891C22.9576 16.3162 23.3732 16.4334 23.7142 16.3588C24.0339 16.2949 23.7142 15.5703 23.6183 15.3785C23.7462 15.6022 23.8954 15.8047 24.0659 15.9965C24.4175 16.3908 24.7479 16.3801 25.0676 16.3375C25.3873 16.2949 25.2913 16.0498 25.2168 15.7301C25.1422 15.4104 24.8012 14.8563 24.8012 14.8563C25.0036 15.144 25.2274 15.4317 25.4618 15.6981C25.7815 16.0391 26.9111 16.3801 27.0603 16.0498C27.1562 15.8367 27.1242 15.7301 26.9111 15.3358C26.7086 14.9416 25.8135 14.0251 25.8135 14.0251ZM21.7109 10.7643C21.8814 10.7643 22.0519 10.7111 22.1904 10.6152C22.3289 10.5193 22.4461 10.3807 22.5101 10.2315C22.574 10.0717 22.5953 9.9012 22.5634 9.7307C22.5314 9.5602 22.4461 9.41101 22.3289 9.28314C22.2117 9.16592 22.0519 9.08067 21.8814 9.0487C21.7109 9.01674 21.5404 9.02739 21.3805 9.10198C21.2207 9.16592 21.0822 9.28314 20.9969 9.42167C20.901 9.5602 20.8477 9.7307 20.8477 9.9012C20.8477 10.0184 20.869 10.125 20.9117 10.2315C20.9543 10.3381 21.0182 10.434 21.1035 10.5086C21.1887 10.5938 21.274 10.6578 21.3805 10.7004C21.4764 10.743 21.5937 10.7643 21.7109 10.7643ZM24.5454 17.2433C24.5454 17.2433 24.5241 16.6465 23.5544 16.5826C22.5634 16.5187 22.5207 16.9449 22.5421 17.1048C22.6166 17.1048 22.6806 17.1261 22.6806 17.1474C22.6806 17.1687 22.6273 17.19 22.5634 17.19C22.6166 17.3499 22.7658 17.5417 23.1921 17.7548C23.5437 17.9253 23.7142 17.9146 23.9167 17.8827C23.9167 17.8827 24.1511 18.0212 24.1511 18.245C24.1511 18.4581 23.7782 18.8737 22.0306 19.7475C22.1371 15.0375 22.233 10.9029 22.233 10.9029H22.3396C22.3822 10.9029 22.4248 10.8816 22.4568 10.8496C22.4888 10.8176 22.5101 10.775 22.5101 10.7324V10.6791C22.5101 10.6578 22.5101 10.6365 22.4994 10.6152C22.4888 10.5938 22.4781 10.5725 22.4568 10.5619C22.3609 10.6684 22.2543 10.7537 22.1265 10.8176C21.9986 10.8816 21.8601 10.9029 21.7215 10.9029C21.583 10.9029 21.4445 10.8709 21.3166 10.8176C21.1887 10.7643 21.0715 10.6684 20.9863 10.5619C20.9649 10.5832 20.9543 10.5938 20.9436 10.6152C20.933 10.6365 20.933 10.6578 20.933 10.6791V10.7324C20.933 10.775 20.9543 10.8176 20.9863 10.8496C21.0182 10.8816 21.0608 10.9029 21.1035 10.9029H21.21C21.21 10.9029 21.2846 14.9202 21.3592 19.545C21.5084 19.6196 21.6576 19.6942 21.8281 19.7795C21.8494 19.7901 21.8814 19.8008 21.9027 19.8114C22.297 20.0032 22.6273 20.1631 22.9044 20.3123C23.8421 19.95 24.7585 19.5344 25.0356 18.9483C25.5258 17.8613 24.5454 17.2433 24.5454 17.2433ZM23.2454 16.9982C23.1388 16.9982 23.0536 16.9449 23.0536 16.881C23.0536 16.817 23.1388 16.7638 23.2454 16.7638C23.3519 16.7638 23.4372 16.817 23.4372 16.881C23.4372 16.9449 23.3519 16.9982 23.2454 16.9982ZM21.551 30.4889C21.6363 30.3823 21.7109 30.2758 21.7961 30.1799C21.8068 29.5725 21.8281 28.8905 21.8387 28.1552C21.7322 28.0486 21.615 27.9421 21.4871 27.8249C21.4445 27.7929 21.4125 27.7503 21.3699 27.7183C21.3166 27.665 21.2633 27.6224 21.21 27.5798C20.9117 27.8568 20.3256 28.4749 20.3256 29.0077C20.3256 29.6364 20.933 30.2758 21.3912 30.734C21.4338 30.6381 21.4871 30.5635 21.551 30.4889ZM21.4871 27.9527C21.5084 28.8585 21.5191 29.6897 21.5297 30.4037C21.1781 29.9348 20.8051 29.4553 20.8051 29.1249C20.8051 28.8159 20.9863 28.4642 21.4871 27.9527ZM21.7322 19.918C19.6542 18.9163 19.228 18.4581 19.228 18.2343C19.228 18.0105 19.4624 17.872 19.4624 17.872C19.6649 17.9146 19.8354 17.9146 20.187 17.7441C20.6133 17.5417 20.7625 17.3392 20.8158 17.1794C20.7518 17.1794 20.6985 17.158 20.6985 17.1367C20.6985 17.1154 20.7625 17.0941 20.8371 17.0941V17.0834C20.8477 16.9236 20.7944 16.508 19.8141 16.572C18.8444 16.6359 18.8231 17.2326 18.8231 17.2326C18.8231 17.2326 17.8427 17.8613 18.3542 18.927C18.8017 19.8754 20.901 20.3762 22.1158 20.9197C23.32 21.4631 23.2454 21.932 23.2454 21.932C23.2454 22.3369 22.4355 22.7632 21.7961 23.2107C21.1568 23.6583 19.8034 24.4362 19.8034 25.3526C19.8034 26.1945 20.6453 26.8445 21.4658 27.5691C22.297 28.2937 22.5634 28.7306 22.5634 29.1356C22.5634 29.6897 21.6469 30.4356 21.1781 31.3627C20.7092 32.2898 21.6363 33.7284 21.3486 32.9718C21.0502 32.2152 21.21 31.6824 21.5937 31.1496C22.0625 30.4996 23.0642 29.8602 23.0642 28.997C23.0642 28.2724 22.0092 27.4199 22.0092 27.4199C21.0715 26.4822 20.4748 25.9494 20.4748 25.4805C20.4748 25.0116 20.9223 24.596 22.1797 23.7755C23.4265 22.9657 24.1618 22.646 24.1618 21.8574C24.1618 21.1648 23.8101 20.9197 21.7322 19.918ZM20.1338 16.7744C20.2403 16.7744 20.3256 16.8277 20.3256 16.8916C20.3256 16.9556 20.2403 17.0089 20.1338 17.0089C20.0272 17.0089 19.9419 16.9556 19.9419 16.8916C19.9419 16.8277 20.0272 16.7744 20.1338 16.7744Z" fill="white"/>
</g>
</g>
<path d="M118.906 37.9533C118.453 38.0422 118.008 38.08 117.573 38.0667C117.137 38.0533 116.748 37.9689 116.406 37.8133C116.064 37.6578 115.806 37.4133 115.633 37.08C115.477 36.7822 115.393 36.48 115.379 36.1733C115.37 35.8622 115.366 35.5111 115.366 35.12V28.7533H116.766V35.0533C116.766 35.3422 116.768 35.5933 116.773 35.8067C116.781 36.02 116.828 36.2 116.913 36.3467C117.073 36.6222 117.326 36.78 117.673 36.82C118.024 36.8556 118.435 36.84 118.906 36.7733V37.9533ZM113.986 31.8733V30.7533H118.906V31.8733H113.986Z" fill="#007AFF"/>
<path d="M111.636 37.9533V34.4133C111.636 34.1333 111.611 33.8467 111.563 33.5533C111.518 33.2556 111.429 32.98 111.296 32.7267C111.167 32.4733 110.983 32.2689 110.743 32.1133C110.507 31.9578 110.198 31.88 109.816 31.88C109.567 31.88 109.331 31.9222 109.109 32.0067C108.887 32.0867 108.691 32.2178 108.523 32.4C108.358 32.5822 108.227 32.8222 108.129 33.12C108.036 33.4178 107.989 33.78 107.989 34.2067L107.123 33.88C107.123 33.2267 107.245 32.6511 107.489 32.1533C107.734 31.6511 108.085 31.26 108.543 30.98C109 30.7 109.554 30.56 110.203 30.56C110.7 30.56 111.118 30.64 111.456 30.8C111.794 30.96 112.067 31.1711 112.276 31.4333C112.489 31.6911 112.651 31.9733 112.763 32.28C112.874 32.5867 112.949 32.8867 112.989 33.18C113.029 33.4733 113.049 33.7311 113.049 33.9533V37.9533H111.636ZM106.576 37.9533V30.7533H107.823V32.8333H107.989V37.9533H106.576Z" fill="#007AFF"/>
<path d="M101.025 38.1533C100.492 38.1533 100.045 38.0556 99.6849 37.86C99.3249 37.66 99.0516 37.3978 98.8649 37.0733C98.6827 36.7444 98.5916 36.3844 98.5916 35.9933C98.5916 35.6289 98.656 35.3089 98.7849 35.0333C98.9138 34.7578 99.1049 34.5244 99.3582 34.3333C99.6116 34.1378 99.9227 33.98 100.292 33.86C100.612 33.7667 100.974 33.6844 101.378 33.6133C101.783 33.5422 102.207 33.4756 102.652 33.4133C103.1 33.3511 103.545 33.2889 103.985 33.2267L103.478 33.5067C103.487 32.9422 103.367 32.5244 103.118 32.2533C102.874 31.9778 102.452 31.84 101.852 31.84C101.474 31.84 101.127 31.9289 100.812 32.1067C100.496 32.28 100.276 32.5689 100.152 32.9733L98.8516 32.5733C99.0293 31.9556 99.3671 31.4644 99.8649 31.1C100.367 30.7356 101.034 30.5533 101.865 30.5533C102.509 30.5533 103.069 30.6644 103.545 30.8867C104.025 31.1044 104.376 31.4511 104.598 31.9267C104.714 32.1622 104.785 32.4111 104.812 32.6733C104.838 32.9356 104.852 33.2178 104.852 33.52V37.9533H103.618V36.3067L103.858 36.52C103.56 37.0711 103.18 37.4822 102.718 37.7533C102.26 38.02 101.696 38.1533 101.025 38.1533ZM101.272 37.0133C101.667 37.0133 102.007 36.9444 102.292 36.8067C102.576 36.6644 102.805 36.4844 102.978 36.2667C103.152 36.0489 103.265 35.8222 103.318 35.5867C103.394 35.3733 103.436 35.1333 103.445 34.8667C103.458 34.6 103.465 34.3867 103.465 34.2267L103.918 34.3933C103.478 34.46 103.078 34.52 102.718 34.5733C102.358 34.6267 102.032 34.68 101.738 34.7333C101.449 34.7822 101.192 34.8422 100.965 34.9133C100.774 34.98 100.603 35.06 100.452 35.1533C100.305 35.2467 100.187 35.36 100.098 35.4933C100.014 35.6267 99.9716 35.7889 99.9716 35.98C99.9716 36.1667 100.018 36.34 100.112 36.5C100.205 36.6556 100.347 36.78 100.538 36.8733C100.729 36.9667 100.974 37.0133 101.272 37.0133Z" fill="#007AFF"/>
<path d="M95.5962 29.5733V28.22H96.9895V29.5733H95.5962ZM95.5962 37.9533V30.7533H96.9895V37.9533H95.5962Z" fill="#007AFF"/>
<path d="M92.0676 37.9533V28.1533H93.461V37.9533H92.0676Z" fill="#007AFF"/>
<path d="M87.2023 38.1533C86.5135 38.1533 85.9357 37.9867 85.469 37.6533C85.0023 37.3156 84.649 36.86 84.409 36.2867C84.169 35.7133 84.049 35.0667 84.049 34.3467C84.049 33.6267 84.1668 32.98 84.4023 32.4067C84.6423 31.8333 84.9935 31.3822 85.4557 31.0533C85.9223 30.72 86.4957 30.5533 87.1757 30.5533C87.8512 30.5533 88.4335 30.72 88.9223 31.0533C89.4157 31.3822 89.7957 31.8333 90.0623 32.4067C90.329 32.9756 90.4623 33.6222 90.4623 34.3467C90.4623 35.0667 90.329 35.7156 90.0623 36.2933C89.8001 36.8667 89.4246 37.32 88.9357 37.6533C88.4512 37.9867 87.8735 38.1533 87.2023 38.1533ZM83.8157 41.1533V30.7533H85.0557V35.9333H85.2157V41.1533H83.8157ZM87.009 36.8933C87.4535 36.8933 87.8201 36.78 88.109 36.5533C88.4023 36.3267 88.6201 36.0222 88.7623 35.64C88.909 35.2533 88.9823 34.8222 88.9823 34.3467C88.9823 33.8756 88.909 33.4489 88.7623 33.0667C88.6201 32.6844 88.4001 32.38 88.1023 32.1533C87.8046 31.9267 87.4246 31.8133 86.9623 31.8133C86.5268 31.8133 86.1668 31.92 85.8823 32.1333C85.6023 32.3467 85.3935 32.6444 85.2557 33.0267C85.1223 33.4089 85.0557 33.8489 85.0557 34.3467C85.0557 34.8444 85.1223 35.2844 85.2557 35.6667C85.389 36.0489 85.6001 36.3489 85.889 36.5667C86.1779 36.7844 86.5512 36.8933 87.009 36.8933Z" fill="#007AFF"/>
<path d="M80.6912 37.9533L80.6979 33.4667C80.6979 32.9467 80.5645 32.5422 80.2979 32.2533C80.0312 31.96 79.6801 31.8133 79.2445 31.8133C78.9779 31.8133 78.7334 31.8756 78.5112 32C78.2934 32.12 78.1156 32.3022 77.9779 32.5467C77.8445 32.7867 77.7779 33.0889 77.7779 33.4533L77.1045 33.1133C77.0956 32.6067 77.2023 32.1622 77.4245 31.78C77.6512 31.3978 77.9579 31.1022 78.3445 30.8933C78.7312 30.68 79.1645 30.5733 79.6445 30.5733C80.4223 30.5733 81.0245 30.8067 81.4512 31.2733C81.8779 31.74 82.0912 32.36 82.0912 33.1333L82.0845 37.9533H80.6912ZM72.0579 37.9533V30.7533H73.2979V32.8333H73.4579V37.9533H72.0579ZM76.3779 37.9533L76.3845 33.4933C76.3845 32.9689 76.2512 32.5578 75.9845 32.26C75.7223 31.9622 75.369 31.8133 74.9245 31.8133C74.4845 31.8133 74.129 31.9644 73.8579 32.2667C73.5912 32.5689 73.4579 32.9644 73.4579 33.4533L72.7912 33.0267C72.7912 32.5556 72.9045 32.1356 73.1312 31.7667C73.3579 31.3978 73.6645 31.1067 74.0512 30.8933C74.4379 30.68 74.8756 30.5733 75.3645 30.5733C75.8756 30.5733 76.3112 30.6822 76.6712 30.9C77.0312 31.1133 77.3045 31.4133 77.4912 31.8C77.6823 32.1867 77.7779 32.6356 77.7779 33.1467L77.7712 37.9533H76.3779Z" fill="#007AFF"/>
<path d="M67.066 38.1533C66.346 38.1533 65.7215 37.9911 65.1926 37.6667C64.6638 37.3422 64.2549 36.8956 63.966 36.3267C63.6815 35.7533 63.5393 35.0933 63.5393 34.3467C63.5393 33.5956 63.686 32.9356 63.9793 32.3667C64.2726 31.7933 64.6838 31.3489 65.2126 31.0333C65.7415 30.7133 66.3593 30.5533 67.066 30.5533C67.786 30.5533 68.4104 30.7156 68.9393 31.04C69.4682 31.3644 69.8771 31.8111 70.166 32.38C70.4549 32.9489 70.5993 33.6044 70.5993 34.3467C70.5993 35.0978 70.4526 35.76 70.1593 36.3333C69.8704 36.9022 69.4615 37.3489 68.9326 37.6733C68.4038 37.9933 67.7815 38.1533 67.066 38.1533ZM67.066 36.84C67.7549 36.84 68.2682 36.6089 68.606 36.1467C68.9482 35.68 69.1193 35.08 69.1193 34.3467C69.1193 33.5956 68.946 32.9956 68.5993 32.5467C68.2571 32.0933 67.746 31.8667 67.066 31.8667C66.5993 31.8667 66.2149 31.9733 65.9126 32.1867C65.6104 32.3956 65.386 32.6867 65.2393 33.06C65.0926 33.4289 65.0193 33.8578 65.0193 34.3467C65.0193 35.1022 65.1926 35.7067 65.5393 36.16C65.886 36.6133 66.3949 36.84 67.066 36.84Z" fill="#007AFF"/>
<path d="M58.2065 38.1533C57.2465 38.1533 56.4287 37.9444 55.7532 37.5267C55.0776 37.1044 54.5598 36.5178 54.1998 35.7667C53.8443 35.0156 53.6665 34.1444 53.6665 33.1533C53.6665 32.1622 53.8443 31.2911 54.1998 30.54C54.5598 29.7889 55.0776 29.2044 55.7532 28.7867C56.4287 28.3644 57.2465 28.1533 58.2065 28.1533C59.3132 28.1533 60.2287 28.4333 60.9532 28.9933C61.6821 29.5533 62.1887 30.3067 62.4732 31.2533L61.0598 31.6333C60.8732 30.9622 60.5398 30.4356 60.0598 30.0533C59.5843 29.6711 58.9665 29.48 58.2065 29.48C57.5265 29.48 56.9598 29.6333 56.5065 29.94C56.0532 30.2467 55.7109 30.6756 55.4798 31.2267C55.2532 31.7778 55.1398 32.42 55.1398 33.1533C55.1354 33.8867 55.2465 34.5289 55.4732 35.08C55.7043 35.6311 56.0465 36.06 56.4998 36.3667C56.9576 36.6733 57.5265 36.8267 58.2065 36.8267C58.9665 36.8267 59.5843 36.6356 60.0598 36.2533C60.5398 35.8667 60.8732 35.34 61.0598 34.6733L62.4732 35.0533C62.1887 36 61.6821 36.7533 60.9532 37.3133C60.2287 37.8733 59.3132 38.1533 58.2065 38.1533Z" fill="#007AFF"/>
<path d="M96.4419 18.9533L100.679 5.51333H103.974L108.211 18.9533H105.897L102.051 6.89467H102.555L98.7566 18.9533H96.4419ZM98.8032 16.0413V13.9413H105.859V16.0413H98.8032Z" fill="#007AFF"/>
<path d="M83.3352 18.9533L87.5725 5.51333H90.8672L95.1045 18.9533H92.7899L88.9445 6.89467H89.4485L85.6499 18.9533H83.3352ZM85.6965 16.0413V13.9413H92.7525V16.0413H85.6965Z" fill="#007AFF"/>
<path d="M73.2764 18.9533V5.51333H78.8297C78.9604 5.51333 79.1284 5.51955 79.3337 5.532C79.539 5.53822 79.7288 5.55689 79.903 5.588C80.6808 5.70622 81.3217 5.96444 81.8257 6.36267C82.3359 6.76089 82.7124 7.26489 82.955 7.87467C83.2039 8.47822 83.3284 9.15022 83.3284 9.89067C83.3284 10.6249 83.2039 11.2969 82.955 11.9067C82.7061 12.5102 82.3266 13.0111 81.8164 13.4093C81.3124 13.8076 80.6746 14.0658 79.903 14.184C79.7288 14.2089 79.5359 14.2276 79.3244 14.24C79.119 14.2524 78.9541 14.2587 78.8297 14.2587H75.5257V18.9533H73.2764ZM75.5257 12.1587H78.7364C78.8608 12.1587 79.0008 12.1524 79.1564 12.14C79.3119 12.1276 79.455 12.1027 79.5857 12.0653C79.959 11.972 80.2515 11.8071 80.463 11.5707C80.6808 11.3342 80.8333 11.0667 80.9204 10.768C81.0137 10.4693 81.0604 10.1769 81.0604 9.89067C81.0604 9.60444 81.0137 9.312 80.9204 9.01333C80.8333 8.70844 80.6808 8.43778 80.463 8.20133C80.2515 7.96489 79.959 7.8 79.5857 7.70667C79.455 7.66933 79.3119 7.64755 79.1564 7.64133C79.0008 7.62889 78.8608 7.62267 78.7364 7.62267H75.5257V12.1587Z" fill="#007AFF"/>
<path d="M68.2312 18.9533V5.51333H70.4805V18.9533H68.2312Z" fill="#007AFF"/>
<path d="M54.5732 18.9533V5.51333H56.8226V11.1693H63.1879V5.51333H65.4279V18.9533H63.1879V13.2787H56.8226V18.9533H54.5732Z" fill="#007AFF"/>
<defs>
<filter id="filter0_d_1100_3465" x="3.24261" y="8.66667" width="36.9047" height="33.595" filterUnits="userSpaceOnUse" color-interpolation-filters="sRGB">
<feFlood flood-opacity="0" result="BackgroundImageFix"/>
<feColorMatrix in="SourceAlpha" type="matrix" values="0 0 0 0 0 0 0 0 0 0 0 0 0 0 0 0 0 0 127 0" result="hardAlpha"/>
<feOffset dy="4.26667"/>
<feGaussianBlur stdDeviation="2.13333"/>
<feComposite in2="hardAlpha" operator="out"/>
<feColorMatrix type="matrix" values="0 0 0 0 0 0 0 0 0 0 0 0 0 0 0 0 0 0 0.25 0"/>
<feBlend mode="normal" in2="BackgroundImageFix" result="effect1_dropShadow_1100_3465"/>
<feBlend mode="normal" in="SourceGraphic" in2="effect1_dropShadow_1100_3465" result="shape"/>
</filter>
<radialGradient id="paint0_radial_1100_3465" cx="0" cy="0" r="1" gradientUnits="userSpaceOnUse" gradientTransform="translate(20.6 37.8666) rotate(120.466) scale(21.038 16.9519)">
<stop stop-color="#2963F7"/>
<stop offset="1" stop-color="#56A4FF"/>
</radialGradient>
<linearGradient id="paint1_linear_1100_3465" x1="6.73335" y1="3.19992" x2="19.5334" y2="39.9999" gradientUnits="userSpaceOnUse">
<stop stop-color="#D2E2FA"/>
<stop offset="1" stop-color="white" stop-opacity="0"/>
</linearGradient>
<clipPath id="clip0_1100_3465">
<rect width="42.6667" height="42.6667" fill="white" transform="translate(0.333252)"/>
</clipPath>
</defs>
</svg>
