<svg width="123" height="44" viewBox="0 0 123 44" fill="none" xmlns="http://www.w3.org/2000/svg">
<path d="M21.217 43C21.2643 39.9455 21.3097 36.8891 21.3533 33.8309C21.3533 33.6455 21.3533 33.4655 21.3533 33.1873L11.3497 34.6218C11.6388 34.1255 11.8952 33.7 12.1297 33.28C12.2781 33.0891 12.3873 32.8707 12.4509 32.6374C12.5145 32.4041 12.5314 32.1606 12.5005 31.9207C12.4695 31.6809 12.3914 31.4496 12.2707 31.2401C12.15 31.0306 11.989 30.847 11.797 30.7C11.1861 30.1164 10.5261 29.5818 9.87153 29.0636C7.32607 26.9473 4.78062 24.8364 2.23516 22.7309C2.1588 22.6709 2.08789 22.6 1.98425 22.5073C2.36607 22.3927 2.71516 22.3218 3.04243 22.1855C3.30847 22.0979 3.55455 21.9586 3.76649 21.7756C3.97842 21.5925 4.15202 21.3693 4.27727 21.1188C4.40251 20.8683 4.47693 20.5955 4.49623 20.3161C4.51553 20.0367 4.47932 19.7562 4.38971 19.4909C4.03516 18.1218 3.66425 16.7636 3.2988 15.4C3.24425 15.1818 3.19516 14.9582 3.12425 14.6691L6.09698 15.3182C6.4188 15.3891 6.74607 15.4491 7.07334 15.4927C7.46148 15.5642 7.86228 15.5115 8.21873 15.3421C8.57518 15.1727 8.86914 14.8952 9.0588 14.5491C9.42425 13.96 9.80607 13.3818 10.2043 12.76C11.2188 13.9273 12.2115 15.0673 13.1988 16.2127C13.4824 16.54 13.7443 16.8891 14.0497 17.1891C14.2946 17.4356 14.5784 17.6401 14.8897 17.7945C15.4024 18.0345 15.8333 17.7945 15.8333 17.2491C15.8152 16.4877 15.7368 15.729 15.5988 14.98C15.1297 12.1109 14.6388 9.25273 14.1533 6.38364C14.1478 6.28553 14.1478 6.18719 14.1533 6.08909C14.4588 6.32364 14.7315 6.54182 15.0043 6.74364C15.6371 7.21303 16.3985 7.4776 17.1861 7.50182C17.4364 7.52419 17.6882 7.47937 17.9154 7.37198C18.1427 7.26459 18.3371 7.09853 18.4788 6.89091C18.7733 6.45455 19.0515 5.98545 19.2915 5.52182C20.1097 4.03818 20.9279 2.54909 21.757 1C21.877 1.18 21.9806 1.31636 22.0624 1.46364C22.9297 3.01273 23.7806 4.56727 24.6697 6.11091C25.4606 7.49636 26.3715 7.78545 27.8279 7.08727C28.392 6.77026 28.9383 6.42246 29.4643 6.04545C29.2133 7.55636 28.9679 9.06182 28.7115 10.5673C28.3988 12.4182 28.0843 14.2673 27.7679 16.1145C27.7435 16.2608 27.7271 16.4083 27.7188 16.5564C27.7188 16.9873 27.6152 17.4836 28.0733 17.7182C28.2939 17.8082 28.539 17.8183 28.7661 17.7465C28.9933 17.6748 29.1882 17.5258 29.317 17.3255C30.1243 16.4473 30.8988 15.5309 31.6843 14.6309L33.4188 12.6727C33.8061 13.2782 34.177 13.8236 34.5097 14.3909C34.715 14.7854 35.0478 15.0987 35.4538 15.28C35.8599 15.4612 36.3154 15.4997 36.7461 15.3891C37.9624 15.1436 39.1788 14.8436 40.4443 14.5982C40.4425 14.7116 40.4316 14.8247 40.4115 14.9364C40.0406 16.3273 39.6643 17.7236 39.2879 19.1145C38.8188 20.8709 39.5879 22.0491 41.3933 22.3327L41.6824 22.3873L40.0461 23.7564C37.4224 25.9382 34.7988 28.12 32.1915 30.3018C31.8864 30.5548 31.6215 30.8528 31.4061 31.1855C31.1981 31.4602 31.0856 31.7954 31.0856 32.14C31.0856 32.4846 31.1981 32.8198 31.4061 33.0945C31.7061 33.52 31.9515 34 32.2624 34.5564L22.2697 33.1L22.417 43H21.217Z" fill="#12253A"/>
<path d="M21.217 43C21.2643 39.9455 21.3097 36.8891 21.3533 33.8309C21.3533 33.6455 21.3533 33.4655 21.3533 33.1873L11.3497 34.6218C11.6388 34.1255 11.8952 33.7 12.1297 33.28C12.2781 33.0891 12.3873 32.8707 12.4509 32.6374C12.5145 32.4041 12.5314 32.1606 12.5005 31.9207C12.4695 31.6809 12.3914 31.4496 12.2707 31.2401C12.15 31.0306 11.989 30.847 11.797 30.7C11.1861 30.1164 10.5261 29.5818 9.87153 29.0636C7.32607 26.9473 4.78062 24.8364 2.23516 22.7309C2.1588 22.6709 2.08789 22.6 1.98425 22.5073C2.36607 22.3927 2.71516 22.3218 3.04243 22.1855C3.30847 22.0979 3.55455 21.9586 3.76649 21.7756C3.97842 21.5925 4.15202 21.3693 4.27727 21.1188C4.40251 20.8683 4.47693 20.5955 4.49623 20.3161C4.51553 20.0367 4.47932 19.7562 4.38971 19.4909C4.03516 18.1218 3.66425 16.7636 3.2988 15.4C3.24425 15.1818 3.19516 14.9582 3.12425 14.6691L6.09698 15.3182C6.4188 15.3891 6.74607 15.4491 7.07334 15.4927C7.46148 15.5642 7.86228 15.5115 8.21873 15.3421C8.57518 15.1727 8.86914 14.8952 9.0588 14.5491C9.42425 13.96 9.80607 13.3818 10.2043 12.76C11.2188 13.9273 12.2115 15.0673 13.1988 16.2127C13.4824 16.54 13.7443 16.8891 14.0497 17.1891C14.2946 17.4356 14.5784 17.6401 14.8897 17.7945C15.4024 18.0345 15.8333 17.7945 15.8333 17.2491C15.8152 16.4877 15.7368 15.729 15.5988 14.98C15.1297 12.1109 14.6388 9.25273 14.1533 6.38364C14.1478 6.28553 14.1478 6.18719 14.1533 6.08909C14.4588 6.32364 14.7315 6.54182 15.0043 6.74364C15.6371 7.21303 16.3985 7.4776 17.1861 7.50182C17.4364 7.52419 17.6882 7.47937 17.9154 7.37198C18.1427 7.26459 18.3371 7.09853 18.4788 6.89091C18.7733 6.45455 19.0515 5.98545 19.2915 5.52182C20.1097 4.03818 20.9279 2.54909 21.757 1C21.877 1.18 21.9806 1.31636 22.0624 1.46364C22.9297 3.01273 23.7806 4.56727 24.6697 6.11091C25.4606 7.49636 26.3715 7.78545 27.8279 7.08727C28.392 6.77026 28.9383 6.42246 29.4643 6.04545C29.2133 7.55636 28.9679 9.06182 28.7115 10.5673C28.3988 12.4182 28.0843 14.2673 27.7679 16.1145C27.7435 16.2608 27.7271 16.4083 27.7188 16.5564C27.7188 16.9873 27.6152 17.4836 28.0733 17.7182C28.2939 17.8082 28.539 17.8183 28.7661 17.7465C28.9933 17.6748 29.1882 17.5258 29.317 17.3255C30.1243 16.4473 30.8988 15.5309 31.6843 14.6309L33.4188 12.6727C33.8061 13.2782 34.177 13.8236 34.5097 14.3909C34.715 14.7854 35.0478 15.0987 35.4538 15.28C35.8599 15.4612 36.3154 15.4997 36.7461 15.3891C37.9624 15.1436 39.1788 14.8436 40.4443 14.5982C40.4425 14.7116 40.4316 14.8247 40.4115 14.9364C40.0406 16.3273 39.6643 17.7236 39.2879 19.1145C38.8188 20.8709 39.5879 22.0491 41.3933 22.3327L41.6824 22.3873L40.0461 23.7564C37.4224 25.9382 34.7988 28.12 32.1915 30.3018C31.8864 30.5548 31.6215 30.8528 31.4061 31.1855C31.1981 31.4602 31.0856 31.7954 31.0856 32.14C31.0856 32.4846 31.1981 32.8198 31.4061 33.0945C31.7061 33.52 31.9515 34 32.2624 34.5564L22.2697 33.1L22.417 43H21.217Z" fill="url(#paint0_radial_1897_7936)"/>
<path d="M55.1417 20V6.56H60.695C60.8257 6.56 60.9937 6.56622 61.199 6.57866C61.4044 6.58489 61.5941 6.60355 61.7684 6.63467C62.5461 6.75289 63.187 7.01111 63.691 7.40933C64.2012 7.80755 64.5777 8.31155 64.8204 8.92133C65.0692 9.52489 65.1937 10.1969 65.1937 10.9373C65.1937 11.6716 65.0692 12.3436 64.8204 12.9533C64.5715 13.5569 64.1919 14.0578 63.6817 14.456C63.1777 14.8542 62.5399 15.1124 61.7684 15.2307C61.5941 15.2556 61.4012 15.2742 61.1897 15.2867C60.9844 15.2991 60.8195 15.3053 60.695 15.3053H57.391V20H55.1417ZM57.391 13.2053H60.6017C60.7261 13.2053 60.8661 13.1991 61.0217 13.1867C61.1772 13.1742 61.3204 13.1493 61.451 13.112C61.8244 13.0187 62.1168 12.8538 62.3284 12.6173C62.5461 12.3809 62.6986 12.1133 62.7857 11.8147C62.879 11.516 62.9257 11.2236 62.9257 10.9373C62.9257 10.6511 62.879 10.3587 62.7857 10.06C62.6986 9.75511 62.5461 9.48444 62.3284 9.248C62.1168 9.01155 61.8244 8.84667 61.451 8.75333C61.3204 8.716 61.1772 8.69422 61.0217 8.688C60.8661 8.67555 60.7261 8.66933 60.6017 8.66933H57.391V13.2053ZM67.2502 20V6.56H69.4996V20H67.2502ZM72.2953 20V6.56H77.8487C77.9793 6.56 78.1473 6.56622 78.3527 6.57866C78.558 6.58489 78.7478 6.60355 78.922 6.63467C79.6998 6.75289 80.3407 7.01111 80.8447 7.40933C81.3549 7.80755 81.7313 8.31155 81.974 8.92133C82.2229 9.52489 82.3473 10.1969 82.3473 10.9373C82.3473 11.6716 82.2229 12.3436 81.974 12.9533C81.7251 13.5569 81.3456 14.0578 80.8353 14.456C80.3313 14.8542 79.6936 15.1124 78.922 15.2307C78.7478 15.2556 78.5549 15.2742 78.3433 15.2867C78.138 15.2991 77.9731 15.3053 77.8487 15.3053H74.5447V20H72.2953ZM74.5447 13.2053H77.7553C77.8798 13.2053 78.0198 13.1991 78.1753 13.1867C78.3309 13.1742 78.474 13.1493 78.6047 13.112C78.978 13.0187 79.2704 12.8538 79.482 12.6173C79.6998 12.3809 79.8522 12.1133 79.9393 11.8147C80.0327 11.516 80.0793 11.2236 80.0793 10.9373C80.0793 10.6511 80.0327 10.3587 79.9393 10.06C79.8522 9.75511 79.6998 9.48444 79.482 9.248C79.2704 9.01155 78.978 8.84667 78.6047 8.75333C78.474 8.716 78.3309 8.69422 78.1753 8.688C78.0198 8.67555 77.8798 8.66933 77.7553 8.66933H74.5447V13.2053ZM84.2172 20V6.56H92.8972V8.66933H86.4665V11.9827H91.7772V14.092H86.4665V17.8907H92.8972V20H84.2172ZM95.1365 20V6.56H99.4205C99.5325 6.56 99.7534 6.56311 100.083 6.56933C100.419 6.57555 100.743 6.59733 101.054 6.63467C102.118 6.77155 103.017 7.15111 103.751 7.77333C104.492 8.38933 105.052 9.17644 105.431 10.1347C105.811 11.0929 106 12.1413 106 13.28C106 14.4187 105.811 15.4671 105.431 16.4253C105.052 17.3836 104.492 18.1738 103.751 18.796C103.017 19.412 102.118 19.7884 101.054 19.9253C100.749 19.9627 100.428 19.9844 100.092 19.9907C99.7565 19.9969 99.5325 20 99.4205 20H95.1365ZM97.4231 17.8813H99.4205C99.6071 17.8813 99.8436 17.8751 100.13 17.8627C100.422 17.8502 100.68 17.8222 100.904 17.7787C101.539 17.6604 102.056 17.3773 102.454 16.9293C102.852 16.4813 103.144 15.9369 103.331 15.296C103.524 14.6551 103.62 13.9831 103.62 13.28C103.62 12.552 103.524 11.8676 103.331 11.2267C103.138 10.5858 102.84 10.0476 102.435 9.612C102.037 9.17644 101.527 8.89955 100.904 8.78133C100.68 8.73155 100.422 8.70355 100.13 8.69733C99.8436 8.68489 99.6071 8.67867 99.4205 8.67867H97.4231V17.8813ZM106.909 20L111.146 6.56H114.441L118.678 20H116.364L112.518 7.94133H113.022L109.224 20H106.909ZM109.27 17.088V14.988H116.326V17.088H109.27ZM58.775 39.2C57.815 39.2 56.9972 38.9911 56.3217 38.5733C55.6461 38.1511 55.1284 37.5644 54.7684 36.8133C54.4128 36.0622 54.235 35.1911 54.235 34.2C54.235 33.2089 54.4128 32.3378 54.7684 31.5867C55.1284 30.8356 55.6461 30.2511 56.3217 29.8333C56.9972 29.4111 57.815 29.2 58.775 29.2C59.8817 29.2 60.7972 29.48 61.5217 30.04C62.2506 30.6 62.7572 31.3533 63.0417 32.3L61.6284 32.68C61.4417 32.0089 61.1084 31.4822 60.6284 31.1C60.1528 30.7178 59.535 30.5267 58.775 30.5267C58.095 30.5267 57.5284 30.68 57.075 30.9867C56.6217 31.2933 56.2795 31.7222 56.0484 32.2733C55.8217 32.8244 55.7084 33.4667 55.7084 34.2C55.7039 34.9333 55.815 35.5756 56.0417 36.1267C56.2728 36.6778 56.615 37.1067 57.0684 37.4133C57.5261 37.72 58.095 37.8733 58.775 37.8733C59.535 37.8733 60.1528 37.6822 60.6284 37.3C61.1084 36.9133 61.4417 36.3867 61.6284 35.72L63.0417 36.1C62.7572 37.0467 62.2506 37.8 61.5217 38.36C60.7972 38.92 59.8817 39.2 58.775 39.2ZM67.6346 39.2C66.9146 39.2 66.2902 39.0378 65.7613 38.7133C65.2324 38.3889 64.8235 37.9422 64.5346 37.3733C64.2502 36.8 64.1079 36.14 64.1079 35.3933C64.1079 34.6422 64.2546 33.9822 64.5479 33.4133C64.8413 32.84 65.2524 32.3956 65.7813 32.08C66.3102 31.76 66.9279 31.6 67.6346 31.6C68.3546 31.6 68.9791 31.7622 69.5079 32.0867C70.0368 32.4111 70.4457 32.8578 70.7346 33.4267C71.0235 33.9956 71.1679 34.6511 71.1679 35.3933C71.1679 36.1444 71.0213 36.8067 70.7279 37.38C70.4391 37.9489 70.0302 38.3956 69.5013 38.72C68.9724 39.04 68.3502 39.2 67.6346 39.2ZM67.6346 37.8867C68.3235 37.8867 68.8368 37.6556 69.1746 37.1933C69.5168 36.7267 69.6879 36.1267 69.6879 35.3933C69.6879 34.6422 69.5146 34.0422 69.1679 33.5933C68.8257 33.14 68.3146 32.9133 67.6346 32.9133C67.1679 32.9133 66.7835 33.02 66.4813 33.2333C66.1791 33.4422 65.9546 33.7333 65.8079 34.1067C65.6613 34.4756 65.5879 34.9044 65.5879 35.3933C65.5879 36.1489 65.7613 36.7533 66.1079 37.2067C66.4546 37.66 66.9635 37.8867 67.6346 37.8867ZM81.2596 39L81.2663 34.5133C81.2663 33.9933 81.1329 33.5889 80.8663 33.3C80.5996 33.0067 80.2485 32.86 79.8129 32.86C79.5463 32.86 79.3018 32.9222 79.0796 33.0467C78.8618 33.1667 78.6841 33.3489 78.5463 33.5933C78.4129 33.8333 78.3463 34.1356 78.3463 34.5L77.6729 34.16C77.6641 33.6533 77.7707 33.2089 77.9929 32.8267C78.2196 32.4444 78.5263 32.1489 78.9129 31.94C79.2996 31.7267 79.7329 31.62 80.2129 31.62C80.9907 31.62 81.5929 31.8533 82.0196 32.32C82.4463 32.7867 82.6596 33.4067 82.6596 34.18L82.6529 39H81.2596ZM72.6263 39V31.8H73.8663V33.88H74.0263V39H72.6263ZM76.9463 39L76.9529 34.54C76.9529 34.0156 76.8196 33.6044 76.5529 33.3067C76.2907 33.0089 75.9374 32.86 75.4929 32.86C75.0529 32.86 74.6974 33.0111 74.4263 33.3133C74.1596 33.6156 74.0263 34.0111 74.0263 34.5L73.3596 34.0733C73.3596 33.6022 73.4729 33.1822 73.6996 32.8133C73.9263 32.4444 74.2329 32.1533 74.6196 31.94C75.0063 31.7267 75.4441 31.62 75.9329 31.62C76.4441 31.62 76.8796 31.7289 77.2396 31.9467C77.5996 32.16 77.8729 32.46 78.0596 32.8467C78.2507 33.2333 78.3463 33.6822 78.3463 34.1933L78.3396 39H76.9463ZM87.7708 39.2C87.0819 39.2 86.5041 39.0333 86.0374 38.7C85.5708 38.3622 85.2174 37.9067 84.9774 37.3333C84.7374 36.76 84.6174 36.1133 84.6174 35.3933C84.6174 34.6733 84.7352 34.0267 84.9708 33.4533C85.2108 32.88 85.5619 32.4289 86.0241 32.1C86.4908 31.7667 87.0641 31.6 87.7441 31.6C88.4196 31.6 89.0019 31.7667 89.4908 32.1C89.9841 32.4289 90.3641 32.88 90.6308 33.4533C90.8974 34.0222 91.0308 34.6689 91.0308 35.3933C91.0308 36.1133 90.8974 36.7622 90.6308 37.34C90.3685 37.9133 89.993 38.3667 89.5041 38.7C89.0196 39.0333 88.4419 39.2 87.7708 39.2ZM84.3841 42.2V31.8H85.6241V36.98H85.7841V42.2H84.3841ZM87.5774 37.94C88.0219 37.94 88.3885 37.8267 88.6774 37.6C88.9708 37.3733 89.1885 37.0689 89.3308 36.6867C89.4774 36.3 89.5508 35.8689 89.5508 35.3933C89.5508 34.9222 89.4774 34.4956 89.3308 34.1133C89.1885 33.7311 88.9685 33.4267 88.6708 33.2C88.373 32.9733 87.993 32.86 87.5308 32.86C87.0952 32.86 86.7352 32.9667 86.4508 33.18C86.1708 33.3933 85.9619 33.6911 85.8241 34.0733C85.6908 34.4556 85.6241 34.8956 85.6241 35.3933C85.6241 35.8911 85.6908 36.3311 85.8241 36.7133C85.9574 37.0956 86.1685 37.3956 86.4574 37.6133C86.7463 37.8311 87.1196 37.94 87.5774 37.94ZM92.6361 39V29.2H94.0294V39H92.6361ZM96.1647 30.62V29.2667H97.558V30.62H96.1647ZM96.1647 39V31.8H97.558V39H96.1647ZM101.593 39.2C101.06 39.2 100.613 39.1022 100.253 38.9067C99.8934 38.7067 99.62 38.4444 99.4334 38.12C99.2511 37.7911 99.16 37.4311 99.16 37.04C99.16 36.6756 99.2245 36.3556 99.3534 36.08C99.4822 35.8044 99.6734 35.5711 99.9267 35.38C100.18 35.1844 100.491 35.0267 100.86 34.9067C101.18 34.8133 101.542 34.7311 101.947 34.66C102.351 34.5889 102.776 34.5222 103.22 34.46C103.669 34.3978 104.113 34.3356 104.553 34.2733L104.047 34.5533C104.056 33.9889 103.936 33.5711 103.687 33.3C103.442 33.0244 103.02 32.8867 102.42 32.8867C102.042 32.8867 101.696 32.9756 101.38 33.1533C101.064 33.3267 100.844 33.6156 100.72 34.02L99.42 33.62C99.5978 33.0022 99.9356 32.5111 100.433 32.1467C100.936 31.7822 101.602 31.6 102.433 31.6C103.078 31.6 103.638 31.7111 104.113 31.9333C104.593 32.1511 104.944 32.4978 105.167 32.9733C105.282 33.2089 105.353 33.4578 105.38 33.72C105.407 33.9822 105.42 34.2644 105.42 34.5667V39H104.187V37.3533L104.427 37.5667C104.129 38.1178 103.749 38.5289 103.287 38.8C102.829 39.0667 102.264 39.2 101.593 39.2ZM101.84 38.06C102.236 38.06 102.576 37.9911 102.86 37.8533C103.144 37.7111 103.373 37.5311 103.547 37.3133C103.72 37.0956 103.833 36.8689 103.887 36.6333C103.962 36.42 104.004 36.18 104.013 35.9133C104.027 35.6467 104.033 35.4333 104.033 35.2733L104.487 35.44C104.047 35.5067 103.647 35.5667 103.287 35.62C102.927 35.6733 102.6 35.7267 102.307 35.78C102.018 35.8289 101.76 35.8889 101.533 35.96C101.342 36.0267 101.171 36.1067 101.02 36.2C100.873 36.2933 100.756 36.4067 100.667 36.54C100.582 36.6733 100.54 36.8356 100.54 37.0267C100.54 37.2133 100.587 37.3867 100.68 37.5467C100.773 37.7022 100.916 37.8267 101.107 37.92C101.298 38.0133 101.542 38.06 101.84 38.06ZM112.205 39V35.46C112.205 35.18 112.18 34.8933 112.131 34.6C112.087 34.3022 111.998 34.0267 111.865 33.7733C111.736 33.52 111.551 33.3156 111.311 33.16C111.076 33.0044 110.767 32.9267 110.385 32.9267C110.136 32.9267 109.9 32.9689 109.678 33.0533C109.456 33.1333 109.26 33.2644 109.091 33.4467C108.927 33.6289 108.796 33.8689 108.698 34.1667C108.605 34.4644 108.558 34.8267 108.558 35.2533L107.691 34.9267C107.691 34.2733 107.813 33.6978 108.058 33.2C108.302 32.6978 108.653 32.3067 109.111 32.0267C109.569 31.7467 110.122 31.6067 110.771 31.6067C111.269 31.6067 111.687 31.6867 112.025 31.8467C112.362 32.0067 112.636 32.2178 112.845 32.48C113.058 32.7378 113.22 33.02 113.331 33.3267C113.442 33.6333 113.518 33.9333 113.558 34.2267C113.598 34.52 113.618 34.7778 113.618 35V39H112.205ZM107.145 39V31.8H108.391V33.88H108.558V39H107.145ZM119.474 39C119.021 39.0889 118.577 39.1267 118.141 39.1133C117.705 39.1 117.317 39.0156 116.974 38.86C116.632 38.7044 116.374 38.46 116.201 38.1267C116.045 37.8289 115.961 37.5267 115.948 37.22C115.939 36.9089 115.934 36.5578 115.934 36.1667V29.8H117.334V36.1C117.334 36.3889 117.337 36.64 117.341 36.8533C117.35 37.0667 117.397 37.2467 117.481 37.3933C117.641 37.6689 117.894 37.8267 118.241 37.8667C118.592 37.9022 119.003 37.8867 119.474 37.82V39ZM114.554 32.92V31.8H119.474V32.92H114.554Z" fill="#007AFF"/>
<defs>
<radialGradient id="paint0_radial_1897_7936" cx="0" cy="0" r="1" gradientUnits="userSpaceOnUse" gradientTransform="translate(20.5681 38.7191) rotate(124.606) scale(22.2787 19.2018)">
<stop stop-color="#2963F7"/>
<stop offset="1" stop-color="#56A4FF"/>
</radialGradient>
</defs>
</svg>
